<?xml version="1.0" encoding="utf-8"?>
<!-- Generator: Adobe Illustrator 19.2.1, SVG Export Plug-In . SVG Version: 6.00 Build 0)  -->
<svg version="1.1" id="Слой_1" xmlns="http://www.w3.org/2000/svg" xmlns:xlink="http://www.w3.org/1999/xlink" x="0px" y="0px"
	 viewBox="0 0 1000 1000" enable-background="new 0 0 1000 1000" xml:space="preserve">
<g>
	<g>
		<g>
			<path d="M500,295.9c-112.6,0-204.2,91.6-204.2,204.1c0,112.6,91.6,204.2,204.2,204.2S704.2,612.6,704.2,500
				S612.6,295.9,500,295.9z M500,636.4c-75.2,0-136.4-61.2-136.4-136.4S424.8,363.6,500,363.6S636.4,424.8,636.4,500
				S575.2,636.4,500,636.4z"/>
			<path d="M500,248c18.7,0,33.9-15.2,33.9-33.9V43.9c0-18.7-15.2-33.9-33.9-33.9c-18.7,0-33.9,15.2-33.9,33.9v170.3
				C466.1,232.9,481.3,248,500,248z"/>
			<path d="M702.1,331.8c8.7,0,17.4-3.3,24-9.9l120.4-120.4c13.2-13.2,13.2-34.7,0-47.9s-34.7-13.2-47.9,0L678.2,274
				c-13.2,13.2-13.2,34.7,0,47.9C684.8,328.5,693.4,331.8,702.1,331.8z"/>
			<path d="M956.1,466.1H785.8c-18.7,0-33.9,15.2-33.9,33.9c0,18.7,15.2,33.9,33.9,33.9h170.3c18.7,0,33.9-15.2,33.9-33.9
				C990,481.3,974.8,466.1,956.1,466.1z"/>
			<path d="M726,678.2c-13.2-13.2-34.7-13.2-47.9,0s-13.2,34.7,0,47.9l120.4,120.4c6.6,6.6,15.3,9.9,24,9.9s17.3-3.3,24-9.9
				c13.2-13.2,13.2-34.7,0-47.9L726,678.2z"/>
			<path d="M500,752c-18.7,0-33.9,15.2-33.9,33.9v170.3c0,18.7,15.2,33.9,33.9,33.9c18.7,0,33.9-15.2,33.9-33.9V785.9
				C533.9,767.1,518.7,752,500,752z"/>
			<path d="M273.9,678.2L153.5,798.6c-13.2,13.2-13.2,34.7,0,47.9c6.6,6.6,15.3,9.9,23.9,9.9c8.7,0,17.3-3.3,23.9-9.9l120.4-120.4
				c13.2-13.2,13.2-34.7,0-47.9C308.6,664.9,287.1,664.9,273.9,678.2z"/>
			<path d="M248,500c0-18.7-15.2-33.9-33.9-33.9H43.9C25.2,466.1,10,481.3,10,500s15.2,33.9,33.9,33.9h170.3
				C232.9,533.9,248,518.7,248,500z"/>
			<path d="M273.9,321.8c6.6,6.6,15.3,9.9,24,9.9s17.3-3.3,23.9-9.9c13.2-13.2,13.2-34.7,0-47.9L201.4,153.5
				c-13.2-13.2-34.7-13.2-47.9,0s-13.2,34.7,0,47.9L273.9,321.8z"/>
		</g>
	</g>
</g>
</svg>
