<?xml version="1.0" encoding="utf-8"?>
<!-- Generator: Adobe Illustrator 19.2.1, SVG Export Plug-In . SVG Version: 6.00 Build 0)  -->
<svg version="1.1" id="Capa_1" xmlns="http://www.w3.org/2000/svg" xmlns:xlink="http://www.w3.org/1999/xlink" x="0px" y="0px"
	 viewBox="0 0 195.5 385.2" enable-background="new 0 0 195.5 385.2" xml:space="preserve">
<path d="M195.5,97.8C195.5,43.9,151.7,0,97.8,0S0,43.9,0,97.8c0,45.8,31.6,84.3,74.2,94.9v169c0,13,10.6,23.6,23.6,23.6
	c13,0,23.5-10.5,23.6-23.4h13.6c9.2,0,16.7-7.5,16.7-16.7c0-9.2-7.5-16.7-16.7-16.7h-13.6v-11.9c0.9,0.1,1.7,0.2,2.6,0.2h23.1
	c9.2,0,16.7-7.5,16.7-16.7c0-9.2-7.5-16.7-16.7-16.7H124c-0.9,0-1.8,0.1-2.6,0.2v-91.1C163.9,182.1,195.5,143.5,195.5,97.8z
	 M97.8,104.9c-21,0-38-17-38-38s17-38,38-38s38,17,38,38S118.7,104.9,97.8,104.9z"/>
</svg>
