<?xml version="1.0" encoding="utf-8"?>
<!DOCTYPE svg PUBLIC "-//W3C//DTD SVG 1.1//EN" "http://www.w3.org/Graphics/SVG/1.1/DTD/svg11.dtd">
<svg version="1.1" baseProfile="full"
 xmlns="http://www.w3.org/2000/svg"
 xmlns:xlink="http://www.w3.org/1999/xlink"
 xmlns:ev="http://www.w3.org/2001/xml-events" 
  height="12px" 
  width="11px" 
>
<path fill="rgb( 180, 191, 199 )"
 d="M10.612,3.11500000000001 L10.186,3.11500000000001 L9.19200000000001,11.426 C9.16399999999999,11.625 9.00299999999999,11.767 8.80399999999997,11.767 L2.19600000000003,11.767 C1.99700000000001,11.767 1.827,11.625 1.80799999999999,11.426 L0.81400000000002,3.11500000000001 L0.38799999999998,3.11500000000001 C0.18000000000001,3.11500000000001 0,2.94499999999999 0,2.727 C0,2.50899999999999 0.17000000000002,2.339 0.38799999999998,2.339 L1.16399999999999,2.339 L3.36000000000001,2.339 L3.36000000000001,1.154 C3.36000000000001,0.93600000000001 3.53100000000001,0.76599999999999 3.74900000000002,0.76599999999999 L7.25099999999998,0.76599999999999 C7.46899999999999,0.76599999999999 7.63900000000001,0.93600000000001 7.63900000000001,1.154 L7.63900000000001,2.339 L9.83600000000001,2.339 L10.612,2.339 C10.83,2.339 11,2.50899999999999 11,2.727 C11,2.94499999999999 10.83,3.11500000000001 10.612,3.11500000000001 ZM6.863,1.54300000000001 L4.137,1.54300000000001 L4.137,2.339 L6.863,2.339 L6.863,1.54300000000001 ZM1.60000000000002,3.11500000000001 L2.53699999999998,10.999 L8.46300000000002,10.999 L9.39999999999998,3.11500000000001 L1.60000000000002,3.11500000000001 ZM6.78699999999998,9.815 C6.57900000000001,9.815 6.399,9.64400000000001 6.399,9.42599999999999 L6.399,4.774 C6.399,4.55600000000001 6.56999999999999,4.38499999999999 6.78699999999998,4.38499999999999 C7.005,4.38499999999999 7.17599999999999,4.55600000000001 7.17599999999999,4.774 L7.17599999999999,9.42599999999999 C7.17599999999999,9.64400000000001 7.005,9.815 6.78699999999998,9.815 ZM4.21300000000002,9.815 C3.995,9.815 3.82400000000001,9.64400000000001 3.82400000000001,9.42599999999999 L3.82400000000001,4.774 C3.82400000000001,4.55600000000001 3.995,4.38499999999999 4.21300000000002,4.38499999999999 C4.43000000000001,4.38499999999999 4.601,4.55600000000001 4.601,4.774 L4.601,9.42599999999999 C4.601,9.64400000000001 4.43000000000001,9.815 4.21300000000002,9.815 Z "/>
</svg>
